<?xml version="1.0" standalone="no"?>
<!DOCTYPE svg PUBLIC "-//W3C//DTD SVG 20010904//EN"
 "http://www.w3.org/TR/2001/REC-SVG-20010904/DTD/svg10.dtd">
<svg version="1.0" xmlns="http://www.w3.org/2000/svg"
 width="300.000000pt" height="650.000000pt" viewBox="0 0 300.000000 650.000000"
 preserveAspectRatio="xMidYMid meet">
<metadata>
Created by potrace 1.10, written by Peter Selinger 2001-2011
</metadata>
<g transform="translate(0.000000,650.000000) scale(0.100000,-0.100000)"
fill="#000000" stroke="none">
<path d="M1315 4158 c-114 -233 -239 -484 -276 -558 l-67 -135 277 -553 276
-553 278 556 277 555 -278 556 -278 555 -209 -423z"/>
<path d="M674 3012 l-271 -95 -85 -276 c-47 -152 -85 -277 -84 -278 1 -1 125
42 275 95 l274 97 83 275 c46 151 82 275 81 276 -1 1 -124 -41 -273 -94z"/>
<path d="M2100 3105 c0 -6 170 -548 173 -550 7 -5 542 -193 544 -192 4 5 -166
540 -174 547 -4 4 -80 33 -168 65 -88 31 -208 74 -267 96 -60 21 -108 37 -108
34z"/>
</g>
</svg>
