<?xml version="1.0" standalone="no"?>
<!DOCTYPE svg PUBLIC "-//W3C//DTD SVG 20010904//EN"
 "http://www.w3.org/TR/2001/REC-SVG-20010904/DTD/svg10.dtd">
<svg version="1.0" xmlns="http://www.w3.org/2000/svg"
 width="300.000000pt" height="650.000000pt" viewBox="0 0 300.000000 650.000000"
 preserveAspectRatio="xMidYMid meet">
<metadata>
Created by potrace 1.10, written by Peter Selinger 2001-2011
</metadata>
<g transform="translate(0.000000,650.000000) scale(0.100000,-0.100000)"
fill="#000000" stroke="none">
<path d="M1493 4578 c-30 -32 -553 -1086 -553 -1114 0 -12 122 -265 270 -563
286 -572 299 -593 341 -555 29 26 559 1090 559 1121 0 25 -505 1051 -544 1106
-24 33 -46 34 -73 5z m315 -1663 c-153 -305 -280 -555 -283 -555 -3 0 -129
249 -281 552 l-276 553 279 562 278 562 280 -559 280 -560 -277 -555z"/>
<path d="M835 3111 c-44 -16 -120 -43 -170 -61 -49 -18 -125 -45 -168 -60
-128 -45 -123 -39 -197 -280 -17 -58 -47 -152 -66 -211 -30 -90 -33 -109 -23
-137 8 -22 17 -32 32 -32 19 0 117 30 162 50 11 5 78 29 150 53 178 61 217 77
241 99 23 21 38 58 74 178 12 41 25 86 30 100 5 14 19 59 31 100 12 41 28 94
35 118 18 57 18 76 -4 95 -24 22 -31 21 -127 -12z m122 -3 c-3 -7 -42 -135
-88 -285 l-84 -272 -265 -94 c-146 -52 -272 -97 -281 -101 -17 -7 -16 -4 125
446 24 77 42 118 54 123 9 4 124 45 255 91 131 46 246 88 255 94 23 13 35 12
29 -2z"/>
<path d="M2088 3129 c-20 -11 -24 -54 -9 -91 6 -13 24 -70 42 -128 17 -58 47
-152 66 -210 19 -58 36 -114 38 -124 6 -26 42 -63 68 -69 12 -3 72 -24 132
-47 61 -22 148 -54 195 -71 198 -70 201 -70 221 -25 9 19 5 45 -26 142 -20 66
-52 171 -72 234 -60 198 -65 206 -154 234 -24 8 -87 30 -139 49 -52 20 -129
47 -170 62 -41 15 -84 30 -95 35 -36 16 -80 20 -97 9z m336 -132 l228 -82 83
-265 c45 -146 86 -274 90 -284 7 -16 5 -18 -11 -11 -10 4 -136 50 -279 102
-143 52 -263 97 -266 101 -4 4 -43 125 -88 269 -44 143 -84 268 -87 277 -5 14
1 13 47 -4 30 -11 157 -58 283 -103z"/>
</g>
</svg>
